<svg id="Слой_1" xmlns="http://www.w3.org/2000/svg" viewBox="0 0 434.2 158.9"><style>.st0,.st2{fill-rule:evenodd;clip-rule:evenodd;fill:#fff}.st2{fill:#ffed00}.st10,.st3,.st4,.st5,.st6,.st7,.st8{fill-rule:evenodd;clip-rule:evenodd;fill:#fc0}.st10,.st4,.st5,.st6,.st7,.st8{fill:#ef7c00}.st10,.st5,.st6,.st7,.st8{fill:#e3000f}.st10,.st6,.st7,.st8{fill:#9c1611}.st10,.st7,.st8{fill:#631002}.st10,.st8{fill:#3e0700}.st10{fill:#0b0000}</style><path class="st0" d="M421.9 96.4v22.3h5.7c3.4 0 6.3-2.3 6.3-6.3v-16c0-10.3-10.3-12.6-21.8-12.6h-15.5V72.9h-5.2c-4 0-6.3 2.3-6.3 6.3v39.5h5.1c4 0 6.3-2.3 6.3-6.3V91.3h16.6c5.3 0 8.8 1.7 8.8 5.1z"/><radialGradient id="SVGID_1_" cx="87.508" cy="76.39" r="96.854" gradientTransform="matrix(1 0 0 -1 0 160)" gradientUnits="userSpaceOnUse"><stop offset="0" stop-color="#fff"/><stop offset=".1" stop-color="#ffed00"/><stop offset=".22" stop-color="#fc0"/><stop offset=".35" stop-color="#ef7c00"/><stop offset=".43" stop-color="#e3000f"/><stop offset=".54" stop-color="#631002"/><stop offset=".66"/><stop offset=".89"/><stop offset="1"/></radialGradient><path d="M65.2 18.9c35.7-12.4 74.7 6.6 87.1 42.3s-6.6 74.7-42.3 87.1-74.7-6.6-87.1-42.3c-12.5-35.8 6.5-74.8 42.3-87.1z" fill-rule="evenodd" clip-rule="evenodd" fill="url(#SVGID_1_)"/><path class="st0" d="M200.2 102.2v16.6h-11.5V86.1c0-9.7 10.3-13.2 21.8-13.2H237.4v2.3c0 4-2.3 5.7-6.3 5.7h-21.8c-5.1 0-9.2 1.1-9.2 4.6v8.6H221.3v2.3c0 3.4-2.3 5.7-6.3 5.7l-14.8.1zM252.3 72.9h-5.1c-4 .6-5.7 2.3-6.3 6.3v39.5h5.1c4-.6 5.7-2.3 6.3-6.3V72.9zM335.4 91.3v6.3h35.5c4 0 6.3 1.7 6.3 5.7v9.2c0 4-2.3 6.3-6.3 6.3h-47v-2.3c0-3.4 2.3-5.7 6.3-5.7h35.5V105h-35.5c-4 0-6.3-2.3-6.3-5.7v-9.2c0-4 2.3-6.3 6.3-6.3h47v1.7c0 4-2.3 5.7-6.3 5.7l-35.5.1zM314.7 112.5V90.1c0-4-2.3-6.3-6.3-6.3h-47.5v1.7c0 4 2.3 5.7 6.3 5.7h36.1v19.5h-30.9V105h26.4v-2.3c0-3.4-2.9-5.7-6.3-5.2h-25.2c-4 0-6.3 1.7-6.3 5.7v9.2c0 4 2.3 6.3 6.3 6.3h41.2c3.9.1 6.2-2.2 6.2-6.2z"/><path class="st0" d="M375.5 50.8C307 24 225.3 21.2 146 48.6c-23.5 8.1-45.6 18.5-65.9 30.7v12.6c21.7-12.5 45.1-23.2 69.9-31.8 77.8-26.8 157.1-28.5 225.5-9.3z"/><path class="st2" d="M80 90.7c21.5-12.4 44.8-23.1 69.5-31.7 77.9-26.9 157.3-28.1 225.9-8.3-68-25.3-149.4-27.3-228.7.2-23.8 8.2-46.1 18.7-66.7 30.9v8.9z"/><path class="st3" d="M80 92.6c21.8-12.5 45.2-23.2 70.1-31.8C228 33.9 307.2 32 375.5 50.8 307.9 26.7 226.8 25.5 147.4 53c-24.1 8.3-46.6 18.8-67.4 31v8.6z"/><path class="st4" d="M80 94.4c21.9-12.5 45.6-23.2 70.7-31.9 77.9-26.9 156.9-29.4 224.8-11.7-67.2-22.9-148-23.4-227.4 4.1C123.8 63.2 101 73.7 80 86v8.4z"/><path class="st5" d="M80 95.9c22.1-12.5 45.9-23.2 71.2-32C229.1 37 307.9 34 375.5 50.8 308.6 28.9 228 29 148.7 56.5c-24.5 8.5-47.4 19-68.6 31.3l-.1 8.1z"/><path class="st6" d="M80 95.3c22-12.6 45.7-23.6 70.9-32.3 77.9-26.9 157.2-28.3 224.5-12.3-66.5-21-146.9-20.3-226.3 7.2-24.7 8.5-47.8 19.1-69.2 31.4l.1 6z"/><path class="st7" d="M80 97.1c22.2-12.5 46.2-23.3 71.6-32.1 77.9-26.9 156.5-30.3 223.9-14.3-66.2-20.1-146.4-18.8-225.8 8.6-24.8 8.6-48.1 19.2-69.7 31.5v6.3z"/><path class="st8" d="M80 97.1c22.2-12.5 46.2-23.3 71.6-32.1 77.9-26.9 156.5-30.3 223.9-14.3-65.9-19.2-145.9-17.3-225.3 10.1-25 8.6-48.5 19.3-70.2 31.6v4.7z"/><path d="M80 97.3c22.2-12.5 46.2-23.3 71.7-32.1 77.9-26.9 156.5-30.4 223.8-14.5-65.6-18.3-145.4-15.9-224.8 11.6C125.5 71 101.9 81.7 80 94.1v3.2z" fill-rule="evenodd" clip-rule="evenodd" fill="#220100"/><path class="st10" d="M80 97.3c22.2-12.5 46.2-23.3 71.7-32.1 77.9-26.9 156.5-30.4 223.8-14.5-65.3-17.5-145-14.6-224.4 12.8C125.8 72.3 102 83.1 80 95.4v1.9z"/><g><path class="st0" d="M80 77.9c-33.4 21-59 46.6-73.9 73.4 15.9-25 41.4-48.8 73.9-68.6v-4.8z"/><path class="st2" d="M80 80.2c-33.2 20.5-58.9 45.3-73.9 71.1 16-24.1 41.6-47.2 73.9-66.6v-4.5z"/><path class="st3" d="M80 82.5c-33 20-58.7 43.9-73.9 68.8 16.1-23.2 41.7-45.6 73.9-64.5v-4.3z"/><path class="st4" d="M80 84.9c-32.9 19.5-58.5 42.8-73.9 66.7C22.4 129.2 47.9 107.5 80 89v-4.1z"/><path class="st5" d="M80 87c-32.8 19-58.4 41.4-73.9 64.3 16.4-21.4 42-42.4 73.9-60.4V87z"/><path class="st5" d="M80 88.2c-32.7 18.7-58.3 40.7-73.9 63 16.5-21 42-41.5 73.9-59.3v-3.7z"/><path class="st6" d="M80 89.1c-32.6 18.6-58.3 40.2-73.9 62.2 16.5-20.6 42.1-40.9 73.9-58.5v-3.7z"/><path class="st7" d="M80 90.8C47.5 108.9 21.9 130 6.1 151.2c16.6-20 42.2-39.7 73.9-57v-3.4z"/><path class="st8" d="M80 92.4c-32.4 17.8-58 38.3-73.9 58.9 16.7-19.4 42.2-38.6 73.9-55.5v-3.4z"/><path class="st10" d="M80 93.8c-32.3 17.5-57.9 37.5-73.9 57.4C22.9 132.4 48.4 113.7 80 97v-3.2z"/></g><radialGradient id="SVGID_2_" cx="102.805" cy="72.513" r="116.769" gradientTransform="matrix(1 0 0 -1 0 160)" gradientUnits="userSpaceOnUse"><stop offset="0" stop-color="#fffbdb"/><stop offset=".25" stop-color="#ffed00"/><stop offset=".33" stop-color="#fc0"/><stop offset=".4" stop-color="#ef7c00"/><stop offset=".47" stop-color="#e3000f"/><stop offset=".54" stop-color="#631002"/><stop offset=".61"/><stop offset="1"/></radialGradient><path d="M80.3 69.5c.8 2.2.3 2.9-2.3 2.6-87.4-8.6-90.8-5.1-2.2 10.6 2.3.4 2.8 1.1 1.5 3.1-40.1 62.8-38.7 65.2 8.7 6.3 1.5-1.9 2.4-1.9 3.5.2 38.4 78.2 40.3 75.9 8.4-4.3-1.2-2.9-.3-3.2 2.4-2.9 99.8 11.2 103.3 9.6 1.9-8.3-3-.5-3.2-1.4-1.6-3.8 52-75.3 50.3-76.1-7.1-5.5-1.9 2.4-2.4 2.7-4-.3-27.6-54.2-30.4-54.8-9.2 2.3z" fill-rule="evenodd" clip-rule="evenodd" fill="url(#SVGID_2_)"/><radialGradient id="SVGID_3_" cx="85.3" cy="87.404" r="114.278" gradientTransform="matrix(1 0 0 -1 0 160)" gradientUnits="userSpaceOnUse"><stop offset="0" stop-color="#fc0"/><stop offset=".29" stop-color="#ef7c00"/><stop offset=".4" stop-color="#e3000f"/><stop offset=".5" stop-color="#9c1611"/><stop offset=".61" stop-color="#631002"/><stop offset=".72"/><stop offset="1"/></radialGradient><path d="M80.3 95.1c1.7-1.4 2.5-1.2 3.1 1.2 20.7 82.7 23.5 84.6 8.8-1.5-.4-2.2.1-2.9 2.4-2.4 70.6 16.1 71.6 15.1 2.2-9-2.2-.8-2.6-1.6-.9-3.3 58.9-60.7 58.2-62.5-4.7-7.1-2.3 2-2.9 1.3-3.5-1.2-22.4-94.9-26.6-96.9-9.8 1.7.5 2.9-.2 3.4-2.9 2.7-85.8-22.9-85.7-20-2.4 9.3 2.8 1 3.3 1.4 1.1 3.7-40.5 43-38.6 44 6.6 5.9z" fill-rule="evenodd" clip-rule="evenodd" fill="url(#SVGID_3_)"/><radialGradient id="SVGID_4_" cx="84.564" cy="80.879" r="110.382" gradientTransform="matrix(1 0 0 -1 0 160)" gradientUnits="userSpaceOnUse"><stop offset="0" stop-color="#fff"/><stop offset=".18" stop-color="#fff"/><stop offset=".31" stop-color="#ffed00"/><stop offset=".38" stop-color="#fc0"/><stop offset=".45" stop-color="#ef7c00"/><stop offset=".52" stop-color="#e3000f"/><stop offset=".58" stop-color="#3e0700"/><stop offset=".64"/><stop offset="1"/></radialGradient><path d="M96.4 85.5c-1.2-1.9-.8-2.7 1.8-2.9 86.1-7.4 88.8-9 .2-8.1-2.3 0-2.9-.6-2-2.8 27.4-68 26.9-70.7-8.3-5.2-1.1 2.1-2 2.3-3.4.4C33.3-1.7 31.5.4 76.9 72.3c1.6 2.6.8 3.1-1.8 3.3-98.6 7.2-101.6 9.3-.2 8.3 3 0 3.4.8 2.2 3.3-36.7 82.2-33.8 83.6 8.9 4.9 1.4-2.6 1.9-3.1 3.9-.5 36.6 47.5 37.4 45.3 6.5-6.1z" fill-rule="evenodd" clip-rule="evenodd" fill="url(#SVGID_4_)"/></svg>